<svg width="54" height="54" viewBox="0 0 54 54" fill="none" xmlns="http://www.w3.org/2000/svg">
<g id="accessible">
<mask id="mask0_120_128" style="mask-type:alpha" maskUnits="userSpaceOnUse" x="0" y="0" width="54" height="54">
<rect id="Bounding box" width="54" height="54" fill="#D9D9D9"/>
</mask>
<g mask="url(#mask0_120_128)">
<path id="accessible_2" d="M27 13.5C25.7625 13.5 24.7031 13.0594 23.8219 12.1781C22.9406 11.2969 22.5 10.2375 22.5 9C22.5 7.7625 22.9406 6.70312 23.8219 5.82188C24.7031 4.94063 25.7625 4.5 27 4.5C28.2375 4.5 29.2969 4.94063 30.1781 5.82188C31.0594 6.70312 31.5 7.7625 31.5 9C31.5 10.2375 31.0594 11.2969 30.1781 12.1781C29.2969 13.0594 28.2375 13.5 27 13.5ZM38.25 49.5V38.25H27C25.7625 38.25 24.7031 37.8094 23.8219 36.9281C22.9406 36.0469 22.5 34.9875 22.5 33.75V20.25C22.5 19.0125 22.9406 17.9531 23.8219 17.0719C24.7031 16.1906 25.7625 15.75 27 15.75C27.9 15.75 28.6781 15.9469 29.3344 16.3406C29.9906 16.7344 30.6938 17.3625 31.4438 18.225C33.5063 20.7 35.3719 22.3969 37.0406 23.3156C38.7094 24.2344 40.6125 24.7125 42.75 24.75V29.25C40.7625 29.25 38.7563 28.8188 36.7312 27.9563C34.7062 27.0938 32.9625 26.0625 31.5 24.8625V32.625H38.25C39.4875 32.625 40.5469 33.0656 41.4281 33.9469C42.3094 34.8281 42.75 35.8875 42.75 37.125V49.5H38.25ZM22.5 49.5C19.3875 49.5 16.7344 48.4031 14.5406 46.2094C12.3469 44.0156 11.25 41.3625 11.25 38.25C11.25 35.55 12.1031 33.1687 13.8094 31.1062C15.5156 29.0437 17.6625 27.75 20.25 27.225V31.8375C18.9375 32.3625 17.8594 33.1969 17.0156 34.3406C16.1719 35.4844 15.75 36.7875 15.75 38.25C15.75 40.125 16.4062 41.7188 17.7188 43.0312C19.0312 44.3438 20.625 45 22.5 45C23.9625 45 25.2656 44.5781 26.4094 43.7344C27.5531 42.8906 28.3875 41.8125 28.9125 40.5H33.525C33 43.0875 31.7063 45.2344 29.6438 46.9406C27.5813 48.6469 25.2 49.5 22.5 49.5Z" fill="#31A05E"/>
</g>
</g>
</svg>
