<svg width="54" height="54" viewBox="0 0 54 54" fill="none" xmlns="http://www.w3.org/2000/svg">
<g id="add_moderator">
<mask id="mask0_120_118" style="mask-type:alpha" maskUnits="userSpaceOnUse" x="0" y="0" width="54" height="54">
<rect id="Bounding box" width="54" height="54" fill="#D9D9D9"/>
</mask>
<g mask="url(#mask0_120_118)">
<path id="add_moderator_2" d="M27 49.5C21.7875 48.1875 17.4844 45.1969 14.0906 40.5281C10.6969 35.8594 9 30.675 9 24.975V11.25L27 4.5L45 11.25V24.0188C44.2875 23.7188 43.5563 23.4469 42.8063 23.2031C42.0563 22.9594 41.2875 22.7812 40.5 22.6687V14.4L27 9.3375L13.5 14.4V24.975C13.5 26.7375 13.7344 28.5 14.2031 30.2625C14.6719 32.025 15.3281 33.7031 16.1719 35.2969C17.0156 36.8906 18.0375 38.3625 19.2375 39.7125C20.4375 41.0625 21.7688 42.1875 23.2313 43.0875C23.6438 44.2875 24.1875 45.4313 24.8625 46.5188C25.5375 47.6063 26.3062 48.5812 27.1687 49.4438C27.1313 49.4438 27.1031 49.4531 27.0844 49.4719C27.0656 49.4906 27.0375 49.5 27 49.5ZM38.25 49.5C35.1375 49.5 32.4844 48.4031 30.2906 46.2094C28.0969 44.0156 27 41.3625 27 38.25C27 35.1375 28.0969 32.4844 30.2906 30.2906C32.4844 28.0969 35.1375 27 38.25 27C41.3625 27 44.0156 28.0969 46.2094 30.2906C48.4031 32.4844 49.5 35.1375 49.5 38.25C49.5 41.3625 48.4031 44.0156 46.2094 46.2094C44.0156 48.4031 41.3625 49.5 38.25 49.5ZM37.125 45H39.375V39.375H45V37.125H39.375V31.5H37.125V37.125H31.5V39.375H37.125V45Z" fill="#31A05E"/>
</g>
</g>
</svg>
