<svg width="54" height="54" viewBox="0 0 54 54" fill="none" xmlns="http://www.w3.org/2000/svg">
<g id="all_inclusive">
<mask id="mask0_120_134" style="mask-type:alpha" maskUnits="userSpaceOnUse" x="0" y="0" width="54" height="54">
<rect id="Bounding box" width="54" height="54" fill="#D9D9D9"/>
</mask>
<g mask="url(#mask0_120_134)">
<path id="all_inclusive_2" d="M12.375 39.375C8.925 39.375 6 38.175 3.6 35.775C1.2 33.375 0 30.45 0 27C0 23.55 1.2 20.625 3.6 18.225C6 15.825 8.925 14.625 12.375 14.625C13.7625 14.625 15.0938 14.8688 16.3687 15.3563C17.6438 15.8438 18.7875 16.5375 19.8 17.4375L23.625 20.925L20.25 23.9625L16.7625 20.8125C16.1625 20.2875 15.4875 19.875 14.7375 19.575C13.9875 19.275 13.2 19.125 12.375 19.125C10.2 19.125 8.34375 19.8938 6.80625 21.4313C5.26875 22.9688 4.5 24.825 4.5 27C4.5 29.175 5.26875 31.0312 6.80625 32.5688C8.34375 34.1062 10.2 34.875 12.375 34.875C13.2 34.875 13.9875 34.725 14.7375 34.425C15.4875 34.125 16.1625 33.7125 16.7625 33.1875L34.2 17.4375C35.2125 16.5375 36.3563 15.8438 37.6313 15.3563C38.9062 14.8688 40.2375 14.625 41.625 14.625C45.075 14.625 48 15.825 50.4 18.225C52.8 20.625 54 23.55 54 27C54 30.45 52.8 33.375 50.4 35.775C48 38.175 45.075 39.375 41.625 39.375C40.2375 39.375 38.9062 39.1313 37.6313 38.6438C36.3563 38.1562 35.2125 37.4625 34.2 36.5625L30.375 33.075L33.75 30.0375L37.2375 33.1875C37.8375 33.7125 38.5125 34.125 39.2625 34.425C40.0125 34.725 40.8 34.875 41.625 34.875C43.8 34.875 45.6562 34.1062 47.1938 32.5688C48.7313 31.0312 49.5 29.175 49.5 27C49.5 24.825 48.7313 22.9688 47.1938 21.4313C45.6562 19.8938 43.8 19.125 41.625 19.125C40.8 19.125 40.0125 19.275 39.2625 19.575C38.5125 19.875 37.8375 20.2875 37.2375 20.8125L19.8 36.5625C18.7875 37.4625 17.6438 38.1562 16.3687 38.6438C15.0938 39.1313 13.7625 39.375 12.375 39.375Z" fill="#31A05E"/>
</g>
</g>
</svg>
