<svg width="54" height="54" viewBox="0 0 54 54" fill="none" xmlns="http://www.w3.org/2000/svg">
<g id="cognition">
<mask id="mask0_120_131" style="mask-type:alpha" maskUnits="userSpaceOnUse" x="0" y="0" width="54" height="54">
<rect id="Bounding box" width="54" height="54" fill="#D9D9D9"/>
</mask>
<g mask="url(#mask0_120_131)">
<path id="cognition_2" d="M27.6188 34.9313C30.2438 34.9313 32.475 34.0875 34.3125 32.4C36.15 30.7125 37.0688 28.6688 37.0688 26.2688C37.0688 24.1313 36.3844 22.3219 35.0156 20.8406C33.6469 19.3594 31.9875 18.6188 30.0375 18.6188C28.275 18.6188 26.7844 19.1813 25.5656 20.3063C24.3469 21.4312 23.7375 22.8188 23.7375 24.4688C23.7375 25.1812 23.8781 25.875 24.1594 26.55C24.4406 27.225 24.8438 27.8438 25.3688 28.4062L28.575 25.2C28.4625 25.125 28.3781 25.0312 28.3219 24.9187C28.2656 24.8062 28.2375 24.675 28.2375 24.525C28.2375 24.1125 28.4063 23.7844 28.7438 23.5406C29.0813 23.2969 29.5125 23.175 30.0375 23.175C30.7875 23.175 31.4062 23.4844 31.8938 24.1031C32.3813 24.7219 32.625 25.4625 32.625 26.325C32.625 27.4875 32.1469 28.4719 31.1906 29.2781C30.2344 30.0844 29.0625 30.4875 27.675 30.4875C25.9125 30.4875 24.4219 29.775 23.2031 28.35C21.9844 26.925 21.375 25.1813 21.375 23.1188C21.375 22.0313 21.5813 20.9906 21.9938 19.9969C22.4062 19.0031 22.9875 18.1312 23.7375 17.3812L20.5312 14.175C19.3313 15.3375 18.4125 16.6875 17.775 18.225C17.1375 19.7625 16.8187 21.375 16.8187 23.0625C16.8187 26.3625 17.8687 29.1656 19.9688 31.4719C22.0688 33.7781 24.6188 34.9313 27.6188 34.9313ZM13.5 49.5V39.825C11.3625 37.875 9.70313 35.5969 8.52188 32.9906C7.34062 30.3844 6.75 27.6375 6.75 24.75C6.75 19.125 8.71875 14.3438 12.6562 10.4062C16.5938 6.46875 21.375 4.5 27 4.5C31.6875 4.5 35.8406 5.87812 39.4594 8.63438C43.0781 11.3906 45.4313 14.9812 46.5188 19.4062L49.4438 30.9375C49.6313 31.65 49.5 32.2969 49.05 32.8781C48.6 33.4594 48 33.75 47.25 33.75H42.75V40.5C42.75 41.7375 42.3094 42.7969 41.4281 43.6781C40.5469 44.5594 39.4875 45 38.25 45H33.75V49.5H29.25V40.5H38.25V29.25H44.325L42.1875 20.5312C41.325 17.1187 39.4875 14.3438 36.675 12.2062C33.8625 10.0687 30.6375 9 27 9C22.65 9 18.9375 10.5188 15.8625 13.5563C12.7875 16.5938 11.25 20.2875 11.25 24.6375C11.25 26.8875 11.7094 29.025 12.6281 31.05C13.5469 33.075 14.85 34.875 16.5375 36.45L18 37.8V49.5H13.5Z" fill="#31A05E"/>
</g>
</g>
</svg>
