<svg width="54" height="54" viewBox="0 0 54 54" fill="none" xmlns="http://www.w3.org/2000/svg">
<g id="diversity_3">
<mask id="mask0_120_121" style="mask-type:alpha" maskUnits="userSpaceOnUse" x="0" y="0" width="54" height="54">
<rect id="Bounding box" width="54" height="54" fill="#D9D9D9"/>
</mask>
<g mask="url(#mask0_120_121)">
<path id="diversity_3_2" d="M2.25 45V36C2.25 34.725 2.69063 33.6562 3.57188 32.7937C4.45312 31.9312 5.5125 31.5 6.75 31.5H14.1188C14.8688 31.5 15.5813 31.6875 16.2562 32.0625C16.9312 32.4375 17.475 32.9438 17.8875 33.5813C18.975 35.0438 20.3156 36.1875 21.9094 37.0125C23.5031 37.8375 25.2 38.25 27 38.25C28.8375 38.25 30.5531 37.8375 32.1469 37.0125C33.7406 36.1875 35.0625 35.0438 36.1125 33.5813C36.6 32.9438 37.1719 32.4375 37.8281 32.0625C38.4844 31.6875 39.1688 31.5 39.8813 31.5H47.25C48.525 31.5 49.5938 31.9312 50.4563 32.7937C51.3188 33.6562 51.75 34.725 51.75 36V45H36V39.8813C34.6875 40.8188 33.2719 41.5312 31.7531 42.0187C30.2344 42.5063 28.65 42.75 27 42.75C25.3875 42.75 23.8125 42.4969 22.275 41.9906C20.7375 41.4844 19.3125 40.7625 18 39.825V45H2.25ZM27 36C25.575 36 24.225 35.6719 22.95 35.0156C21.675 34.3594 20.6063 33.45 19.7437 32.2875C19.1063 31.35 18.3094 30.6094 17.3531 30.0656C16.3969 29.5219 15.3563 29.25 14.2313 29.25C15.0563 27.8625 16.8 26.7656 19.4625 25.9594C22.125 25.1531 24.6375 24.75 27 24.75C29.3625 24.75 31.875 25.1531 34.5375 25.9594C37.2 26.7656 38.9438 27.8625 39.7688 29.25C38.6813 29.25 37.65 29.5219 36.675 30.0656C35.7 30.6094 34.8937 31.35 34.2563 32.2875C33.4313 33.4875 32.3813 34.4062 31.1062 35.0437C29.8312 35.6812 28.4625 36 27 36ZM9 29.25C7.125 29.25 5.53125 28.5938 4.21875 27.2812C2.90625 25.9688 2.25 24.375 2.25 22.5C2.25 20.5875 2.90625 18.9844 4.21875 17.6906C5.53125 16.3969 7.125 15.75 9 15.75C10.9125 15.75 12.5156 16.3969 13.8094 17.6906C15.1031 18.9844 15.75 20.5875 15.75 22.5C15.75 24.375 15.1031 25.9688 13.8094 27.2812C12.5156 28.5938 10.9125 29.25 9 29.25ZM45 29.25C43.125 29.25 41.5312 28.5938 40.2188 27.2812C38.9062 25.9688 38.25 24.375 38.25 22.5C38.25 20.5875 38.9062 18.9844 40.2188 17.6906C41.5312 16.3969 43.125 15.75 45 15.75C46.9125 15.75 48.5156 16.3969 49.8094 17.6906C51.1031 18.9844 51.75 20.5875 51.75 22.5C51.75 24.375 51.1031 25.9688 49.8094 27.2812C48.5156 28.5938 46.9125 29.25 45 29.25ZM27 22.5C25.125 22.5 23.5312 21.8438 22.2188 20.5312C20.9062 19.2188 20.25 17.625 20.25 15.75C20.25 13.8375 20.9062 12.2344 22.2188 10.9406C23.5312 9.64688 25.125 9 27 9C28.9125 9 30.5156 9.64688 31.8094 10.9406C33.1031 12.2344 33.75 13.8375 33.75 15.75C33.75 17.625 33.1031 19.2188 31.8094 20.5312C30.5156 21.8438 28.9125 22.5 27 22.5Z" fill="#31A05E"/>
</g>
</g>
</svg>
