<svg width="54" height="54" viewBox="0 0 54 54" fill="none" xmlns="http://www.w3.org/2000/svg">
<g id="escalator_warning">
<mask id="mask0_120_152" style="mask-type:alpha" maskUnits="userSpaceOnUse" x="0" y="0" width="54" height="54">
<rect id="Bounding box" width="54" height="54" fill="#D9D9D9"/>
</mask>
<g mask="url(#mask0_120_152)">
<path id="escalator_warning_2" d="M14.625 13.5C13.3875 13.5 12.3281 13.0594 11.4469 12.1781C10.5656 11.2969 10.125 10.2375 10.125 9C10.125 7.7625 10.5656 6.70312 11.4469 5.82188C12.3281 4.94063 13.3875 4.5 14.625 4.5C15.8625 4.5 16.9219 4.94063 17.8031 5.82188C18.6844 6.70312 19.125 7.7625 19.125 9C19.125 10.2375 18.6844 11.2969 17.8031 12.1781C16.9219 13.0594 15.8625 13.5 14.625 13.5ZM38.25 24.75C37.3125 24.75 36.5156 24.4219 35.8594 23.7656C35.2031 23.1094 34.875 22.3125 34.875 21.375C34.875 20.4375 35.2031 19.6406 35.8594 18.9844C36.5156 18.3281 37.3125 18 38.25 18C39.1875 18 39.9844 18.3281 40.6406 18.9844C41.2969 19.6406 41.625 20.4375 41.625 21.375C41.625 22.3125 41.2969 23.1094 40.6406 23.7656C39.9844 24.4219 39.1875 24.75 38.25 24.75ZM10.125 49.5V33.75H6.75V20.25C6.75 19.0125 7.19063 17.9531 8.07188 17.0719C8.95312 16.1906 10.0125 15.75 11.25 15.75H18C18.825 15.75 19.575 15.9469 20.25 16.3406C20.925 16.7344 21.4688 17.2875 21.8812 18L29.925 31.8938L32.2312 28.4625C32.5312 28.0125 32.9344 27.6562 33.4406 27.3938C33.9469 27.1313 34.4812 27 35.0437 27H41.625C42.5625 27 43.3594 27.3281 44.0156 27.9844C44.6719 28.6406 45 29.4375 45 30.375V38.25H42.75V49.5H33.75V33.525L32.0063 36H27.0563L21.375 26.1V49.5H10.125Z" fill="#31A05E"/>
</g>
</g>
</svg>
