<svg width="54" height="54" viewBox="0 0 54 54" fill="none" xmlns="http://www.w3.org/2000/svg">
<g id="family_restroom">
<mask id="mask0_120_155" style="mask-type:alpha" maskUnits="userSpaceOnUse" x="0" y="0" width="54" height="54">
<rect id="Bounding box" width="54" height="54" fill="#D9D9D9"/>
</mask>
<g mask="url(#mask0_120_155)">
<path id="family_restroom_2" d="M40.5 13.5C39.2625 13.5 38.2031 13.0594 37.3219 12.1781C36.4406 11.2969 36 10.2375 36 9C36 7.7625 36.4406 6.70312 37.3219 5.82188C38.2031 4.94063 39.2625 4.5 40.5 4.5C41.7375 4.5 42.7969 4.94063 43.6781 5.82188C44.5594 6.70312 45 7.7625 45 9C45 10.2375 44.5594 11.2969 43.6781 12.1781C42.7969 13.0594 41.7375 13.5 40.5 13.5ZM38.25 49.5V31.5C38.25 30 37.8656 28.65 37.0969 27.45C36.3281 26.25 35.3438 25.3125 34.1438 24.6375L36.1125 18.8438C36.4125 17.9062 36.9656 17.1562 37.7719 16.5938C38.5781 16.0312 39.4875 15.75 40.5 15.75C41.5125 15.75 42.4219 16.0312 43.2281 16.5938C44.0344 17.1562 44.5875 17.9062 44.8875 18.8438L50.625 36H45V49.5H38.25ZM28.125 25.875C27.1875 25.875 26.3906 25.5469 25.7344 24.8906C25.0781 24.2344 24.75 23.4375 24.75 22.5C24.75 21.5625 25.0781 20.7656 25.7344 20.1094C26.3906 19.4531 27.1875 19.125 28.125 19.125C29.0625 19.125 29.8594 19.4531 30.5156 20.1094C31.1719 20.7656 31.5 21.5625 31.5 22.5C31.5 23.4375 31.1719 24.2344 30.5156 24.8906C29.8594 25.5469 29.0625 25.875 28.125 25.875ZM12.375 13.5C11.1375 13.5 10.0781 13.0594 9.19688 12.1781C8.31563 11.2969 7.875 10.2375 7.875 9C7.875 7.7625 8.31563 6.70312 9.19688 5.82188C10.0781 4.94063 11.1375 4.5 12.375 4.5C13.6125 4.5 14.6719 4.94063 15.5531 5.82188C16.4344 6.70312 16.875 7.7625 16.875 9C16.875 10.2375 16.4344 11.2969 15.5531 12.1781C14.6719 13.0594 13.6125 13.5 12.375 13.5ZM7.875 49.5V33.75H4.5V20.25C4.5 19.0125 4.94063 17.9531 5.82188 17.0719C6.70312 16.1906 7.7625 15.75 9 15.75H15.75C16.9875 15.75 18.0469 16.1906 18.9281 17.0719C19.8094 17.9531 20.25 19.0125 20.25 20.25V33.75H16.875V49.5H7.875ZM24.75 49.5V40.5H22.5V31.5C22.5 30.5625 22.8281 29.7656 23.4844 29.1094C24.1406 28.4531 24.9375 28.125 25.875 28.125H30.375C31.3125 28.125 32.1094 28.4531 32.7656 29.1094C33.4219 29.7656 33.75 30.5625 33.75 31.5V40.5H31.5V49.5H24.75Z" fill="#31A05E"/>
</g>
</g>
</svg>
