<svg width="54" height="54" viewBox="0 0 54 54" fill="none" xmlns="http://www.w3.org/2000/svg">
<g id="flightsmode">
<mask id="mask0_120_158" style="mask-type:alpha" maskUnits="userSpaceOnUse" x="0" y="0" width="54" height="54">
<rect id="Bounding box" width="54" height="54" fill="#D9D9D9"/>
</mask>
<g mask="url(#mask0_120_158)">
<path id="flightsmode_2" d="M8.21255 34.65L10.575 32.2875L16.2 33.075L24.975 24.3L7.42505 14.7375L10.575 11.5875L32.0625 17.1L40.8376 8.43745C41.475 7.79995 42.2626 7.4812 43.2001 7.4812C44.1376 7.4812 44.925 7.79995 45.5625 8.43745C46.2001 9.07495 46.5188 9.86245 46.5188 10.8C46.5188 11.7375 46.2001 12.525 45.5625 13.1625L36.9 21.9375L42.4125 43.425L39.2626 46.575L29.7001 29.025L20.925 37.8L21.7125 43.425L19.35 45.7874L15.4125 38.5875L8.21255 34.65Z" fill="#31A05E"/>
</g>
</g>
</svg>
