<svg width="54" height="54" viewBox="0 0 54 54" fill="none" xmlns="http://www.w3.org/2000/svg">
<g id="person_apron">
<mask id="mask0_120_115" style="mask-type:alpha" maskUnits="userSpaceOnUse" x="0" y="0" width="54" height="54">
<rect id="Bounding box" width="54" height="54" fill="#D9D9D9"/>
</mask>
<g mask="url(#mask0_120_115)">
<path id="person_apron_2" d="M27 27C24.525 27 22.4063 26.1188 20.6438 24.3563C18.8813 22.5938 18 20.475 18 18C18 15.525 18.8813 13.4062 20.6438 11.6438C22.4063 9.88125 24.525 9 27 9C29.475 9 31.5938 9.88125 33.3562 11.6438C35.1187 13.4062 36 15.525 36 18C36 20.475 35.1187 22.5938 33.3562 24.3563C31.5938 26.1188 29.475 27 27 27ZM9 45V38.7C9 37.425 9.31875 36.2531 9.95625 35.1844C10.5938 34.1156 11.475 33.3 12.6 32.7375C14.85 31.6125 17.1844 30.75 19.6031 30.15C22.0219 29.55 24.4875 29.25 27 29.25C29.5125 29.25 31.9781 29.55 34.3969 30.15C36.8156 30.75 39.15 31.6125 41.4 32.7375C42.525 33.3 43.4062 34.1156 44.0438 35.1844C44.6812 36.2531 45 37.425 45 38.7V45H9ZM27 22.5C28.2375 22.5 29.2969 22.0594 30.1781 21.1781C31.0594 20.2969 31.5 19.2375 31.5 18C31.5 16.7625 31.0594 15.7031 30.1781 14.8219C29.2969 13.9406 28.2375 13.5 27 13.5C25.7625 13.5 24.7031 13.9406 23.8219 14.8219C22.9406 15.7031 22.5 16.7625 22.5 18C22.5 19.2375 22.9406 20.2969 23.8219 21.1781C24.7031 22.0594 25.7625 22.5 27 22.5ZM36 35.325V40.5H40.5V38.7C40.5 38.2875 40.4062 37.9125 40.2188 37.575C40.0312 37.2375 39.75 36.975 39.375 36.7875C38.85 36.4875 38.2969 36.2156 37.7156 35.9719C37.1344 35.7281 36.5625 35.5125 36 35.325ZM22.5 34.1438V37.125H31.5V34.1438C30.75 33.9937 30 33.8906 29.25 33.8344C28.5 33.7781 27.75 33.75 27 33.75C26.25 33.75 25.5 33.7781 24.75 33.8344C24 33.8906 23.25 33.9937 22.5 34.1438ZM13.5 40.5H18V35.325C17.4375 35.5125 16.8656 35.7281 16.2844 35.9719C15.7031 36.2156 15.15 36.4875 14.625 36.7875C14.25 36.975 13.9688 37.2375 13.7812 37.575C13.5938 37.9125 13.5 38.2875 13.5 38.7V40.5Z" fill="#31A05E"/>
</g>
</g>
</svg>
