<svg width="54" height="54" viewBox="0 0 54 54" fill="none" xmlns="http://www.w3.org/2000/svg">
<g id="pill">
<mask id="mask0_120_146" style="mask-type:alpha" maskUnits="userSpaceOnUse" x="0" y="0" width="54" height="54">
<rect id="Bounding box" width="54" height="54" fill="#D9D9D9"/>
</mask>
<g mask="url(#mask0_120_146)">
<path id="pill_2" d="M19.4062 47.25C15.8812 47.25 12.8906 46.0219 10.4344 43.5656C7.97813 41.1094 6.75 38.1187 6.75 34.5938C6.75 32.9062 7.06875 31.2938 7.70625 29.7563C8.34375 28.2188 9.2625 26.85 10.4625 25.65L25.65 10.4625C26.85 9.2625 28.2188 8.34375 29.7563 7.70625C31.2938 7.06875 32.9062 6.75 34.5938 6.75C38.1187 6.75 41.1094 7.97813 43.5656 10.4344C46.0219 12.8906 47.25 15.8812 47.25 19.4062C47.25 21.0938 46.9313 22.7063 46.2938 24.2437C45.6562 25.7812 44.7375 27.15 43.5375 28.35L28.35 43.5375C27.15 44.7375 25.7812 45.6562 24.2437 46.2938C22.7063 46.9313 21.0938 47.25 19.4062 47.25ZM34.3688 31.1625L40.3875 25.2C41.1375 24.45 41.7188 23.5688 42.1313 22.5563C42.5438 21.5437 42.75 20.4937 42.75 19.4062C42.75 17.1562 41.9531 15.2344 40.3594 13.6406C38.7656 12.0469 36.8438 11.25 34.5938 11.25C33.5063 11.25 32.4563 11.4563 31.4438 11.8688C30.4313 12.2812 29.55 12.8625 28.8 13.6125L22.8375 19.6312L34.3688 31.1625ZM19.4062 42.75C20.4937 42.75 21.5437 42.5438 22.5563 42.1313C23.5688 41.7188 24.45 41.1375 25.2 40.3875L31.1625 34.3688L19.6312 22.8375L13.6125 28.8C12.8625 29.55 12.2812 30.4313 11.8688 31.4438C11.4563 32.4563 11.25 33.5063 11.25 34.5938C11.25 36.8438 12.0469 38.7656 13.6406 40.3594C15.2344 41.9531 17.1562 42.75 19.4062 42.75Z" fill="#31A05E"/>
</g>
</g>
</svg>
