<svg width="54" height="54" viewBox="0 0 54 54" fill="none" xmlns="http://www.w3.org/2000/svg">
<g id="sports_kabaddi">
<mask id="mask0_120_143" style="mask-type:alpha" maskUnits="userSpaceOnUse" x="0" y="0" width="54" height="54">
<rect id="Bounding box" width="54" height="54" fill="#D9D9D9"/>
</mask>
<g mask="url(#mask0_120_143)">
<path id="sports_kabaddi_2" d="M3.20627 49.5L0.0562744 46.35L8.26877 38.1375L5.79377 31.5C5.53127 30.825 5.47502 30.0469 5.62502 29.1656C5.77502 28.2844 6.20627 27.4875 6.91877 26.775L14.3438 19.35C14.7938 18.9 15.2813 18.5625 15.8063 18.3375C16.3313 18.1125 16.9125 18 17.55 18C18.1875 18 18.7688 18.1125 19.2938 18.3375C19.8188 18.5625 20.3063 18.9 20.7563 19.35L25.2563 23.7375C26.2688 24.75 27.5063 25.5469 28.9688 26.1281C30.4313 26.7094 32.0063 27 33.6938 27V31.5C31.4438 31.5 29.3438 31.1438 27.3938 30.4313C25.4438 29.7188 23.7563 28.65 22.3313 27.225L20.7563 25.65L15.4688 30.9375L20.1938 35.775V49.5H15.6938V37.6875L12.7688 34.9875V39.9375L3.20627 49.5ZM33.6938 49.5V33.75L38.4188 29.25L37.0688 21.375C36.5063 22.05 35.8875 22.65 35.2125 23.175C34.5375 23.7 33.8063 24.1875 33.0188 24.6375C31.7813 24.5625 30.6094 24.3 29.5032 23.85C28.3969 23.4 27.4688 22.8 26.7188 22.05C28.4063 21.75 29.8969 21.1781 31.1907 20.3344C32.4844 19.4906 33.5438 18.4125 34.3688 17.1L36.6188 13.5C37.2563 12.4875 38.1375 11.8031 39.2625 11.4469C40.3875 11.0906 41.4938 11.1375 42.5813 11.5875L53.9438 16.425V27H49.4438V19.35L45.3938 17.775L51.6938 49.5H46.9688L42.9188 32.625L38.1938 37.125V49.5H33.6938ZM25.8188 19.125C24.5813 19.125 23.5219 18.6844 22.6406 17.8031C21.7594 16.9219 21.3188 15.8625 21.3188 14.625C21.3188 13.3875 21.7594 12.3281 22.6406 11.4469C23.5219 10.5656 24.5813 10.125 25.8188 10.125C27.0563 10.125 28.1157 10.5656 28.9969 11.4469C29.8781 12.3281 30.3188 13.3875 30.3188 14.625C30.3188 15.8625 29.8781 16.9219 28.9969 17.8031C28.1157 18.6844 27.0563 19.125 25.8188 19.125ZM37.0688 10.125C35.8313 10.125 34.7719 9.68438 33.8907 8.80313C33.0094 7.92188 32.5688 6.8625 32.5688 5.625C32.5688 4.3875 33.0094 3.32812 33.8907 2.44688C34.7719 1.56563 35.8313 1.125 37.0688 1.125C38.3063 1.125 39.3657 1.56563 40.2469 2.44688C41.1282 3.32812 41.5688 4.3875 41.5688 5.625C41.5688 6.8625 41.1282 7.92188 40.2469 8.80313C39.3657 9.68438 38.3063 10.125 37.0688 10.125Z" fill="#31A05E"/>
</g>
</g>
</svg>
