<svg width="54" height="54" viewBox="0 0 54 54" fill="none" xmlns="http://www.w3.org/2000/svg">
<g id="work_alert">
<mask id="mask0_120_166" style="mask-type:alpha" maskUnits="userSpaceOnUse" x="0" y="0" width="54" height="54">
<rect id="Bounding box" width="54" height="54" fill="#D9D9D9"/>
</mask>
<g mask="url(#mask0_120_166)">
<path id="work_alert_2" d="M22.5 13.5H31.5V9H22.5V13.5ZM9 47.25C7.7625 47.25 6.70312 46.8094 5.82188 45.9281C4.94063 45.0469 4.5 43.9875 4.5 42.75V18C4.5 16.7625 4.94063 15.7031 5.82188 14.8219C6.70312 13.9406 7.7625 13.5 9 13.5H18V9C18 7.7625 18.4406 6.70312 19.3219 5.82188C20.2031 4.94063 21.2625 4.5 22.5 4.5H31.5C32.7375 4.5 33.7969 4.94063 34.6781 5.82188C35.5594 6.70312 36 7.7625 36 9V13.5H45C46.2375 13.5 47.2969 13.9406 48.1781 14.8219C49.0594 15.7031 49.5 16.7625 49.5 18V27.6188C48.825 27.1313 48.1125 26.7094 47.3625 26.3531C46.6125 25.9969 45.825 25.6875 45 25.425V18H9V42.75H24.9187C25.0312 43.5375 25.2 44.3062 25.425 45.0562C25.65 45.8062 25.9312 46.5375 26.2688 47.25H9ZM40.5 51.75C37.3875 51.75 34.7344 50.6531 32.5406 48.4594C30.3469 46.2656 29.25 43.6125 29.25 40.5C29.25 37.3875 30.3469 34.7344 32.5406 32.5406C34.7344 30.3469 37.3875 29.25 40.5 29.25C43.6125 29.25 46.2656 30.3469 48.4594 32.5406C50.6531 34.7344 51.75 37.3875 51.75 40.5C51.75 43.6125 50.6531 46.2656 48.4594 48.4594C46.2656 50.6531 43.6125 51.75 40.5 51.75ZM40.5 47.25C40.8 47.25 41.0625 47.1375 41.2875 46.9125C41.5125 46.6875 41.625 46.425 41.625 46.125C41.625 45.825 41.5125 45.5625 41.2875 45.3375C41.0625 45.1125 40.8 45 40.5 45C40.2 45 39.9375 45.1125 39.7125 45.3375C39.4875 45.5625 39.375 45.825 39.375 46.125C39.375 46.425 39.4875 46.6875 39.7125 46.9125C39.9375 47.1375 40.2 47.25 40.5 47.25ZM39.375 42.75H41.625V33.75H39.375V42.75Z" fill="#31A05E"/>
</g>
</g>
</svg>
