<svg width="25" height="26" viewBox="0 0 25 26" fill="none" xmlns="http://www.w3.org/2000/svg">
<g id="Group">
<path id="Vector" fill-rule="evenodd" clip-rule="evenodd" d="M7.08333 13.4584H5.66667V14.875H7.08333V13.4584ZM5.66667 12.0417C5.29094 12.0417 4.93061 12.1909 4.66493 12.4566C4.39926 12.7223 4.25 13.0826 4.25 13.4584V14.875C4.25 15.2507 4.39926 15.6111 4.66493 15.8768C4.93061 16.1424 5.29094 16.2917 5.66667 16.2917H7.08333C7.45906 16.2917 7.81939 16.1424 8.08507 15.8768C8.35074 15.6111 8.5 15.2507 8.5 14.875V13.4584C8.5 13.0826 8.35074 12.7223 8.08507 12.4566C7.81939 12.1909 7.45906 12.0417 7.08333 12.0417H5.66667ZM12.75 13.4584H11.3333V14.875H12.75V13.4584ZM11.3333 12.0417C10.9576 12.0417 10.5973 12.1909 10.3316 12.4566C10.0659 12.7223 9.91667 13.0826 9.91667 13.4584V14.875C9.91667 15.2507 10.0659 15.6111 10.3316 15.8768C10.5973 16.1424 10.9576 16.2917 11.3333 16.2917H12.75C13.1257 16.2917 13.4861 16.1424 13.7517 15.8768C14.0174 15.6111 14.1667 15.2507 14.1667 14.875V13.4584C14.1667 13.0826 14.0174 12.7223 13.7517 12.4566C13.4861 12.1909 13.1257 12.0417 12.75 12.0417H11.3333ZM18.4167 13.4584H17V14.875H18.4167V13.4584ZM17 12.0417C16.6243 12.0417 16.2639 12.1909 15.9983 12.4566C15.7326 12.7223 15.5833 13.0826 15.5833 13.4584V14.875C15.5833 15.2507 15.7326 15.6111 15.9983 15.8768C16.2639 16.1424 16.6243 16.2917 17 16.2917H18.4167C18.7924 16.2917 19.1527 16.1424 19.4184 15.8768C19.6841 15.6111 19.8333 15.2507 19.8333 14.875V13.4584C19.8333 13.0826 19.6841 12.7223 19.4184 12.4566C19.1527 12.1909 18.7924 12.0417 18.4167 12.0417H17ZM7.08333 19.125H5.66667V20.5417H7.08333V19.125ZM5.66667 17.7084C5.29094 17.7084 4.93061 17.8576 4.66493 18.1233C4.39926 18.389 4.25 18.7493 4.25 19.125V20.5417C4.25 20.9174 4.39926 21.2777 4.66493 21.5434C4.93061 21.8091 5.29094 21.9584 5.66667 21.9584H7.08333C7.45906 21.9584 7.81939 21.8091 8.08507 21.5434C8.35074 21.2777 8.5 20.9174 8.5 20.5417V19.125C8.5 18.7493 8.35074 18.389 8.08507 18.1233C7.81939 17.8576 7.45906 17.7084 7.08333 17.7084H5.66667ZM12.75 19.125H11.3333V20.5417H12.75V19.125ZM11.3333 17.7084C10.9576 17.7084 10.5973 17.8576 10.3316 18.1233C10.0659 18.389 9.91667 18.7493 9.91667 19.125V20.5417C9.91667 20.9174 10.0659 21.2777 10.3316 21.5434C10.5973 21.8091 10.9576 21.9584 11.3333 21.9584H12.75C13.1257 21.9584 13.4861 21.8091 13.7517 21.5434C14.0174 21.2777 14.1667 20.9174 14.1667 20.5417V19.125C14.1667 18.7493 14.0174 18.389 13.7517 18.1233C13.4861 17.8576 13.1257 17.7084 12.75 17.7084H11.3333ZM18.4167 19.125H17V20.5417H18.4167V19.125ZM17 17.7084C16.6243 17.7084 16.2639 17.8576 15.9983 18.1233C15.7326 18.389 15.5833 18.7493 15.5833 19.125V20.5417C15.5833 20.9174 15.7326 21.2777 15.9983 21.5434C16.2639 21.8091 16.6243 21.9584 17 21.9584H18.4167C18.7924 21.9584 19.1527 21.8091 19.4184 21.5434C19.6841 21.2777 19.8333 20.9174 19.8333 20.5417V19.125C19.8333 18.7493 19.6841 18.389 19.4184 18.1233C19.1527 17.8576 18.7924 17.7084 18.4167 17.7084H17Z" fill="white"/>
<path id="Vector_2" fill-rule="evenodd" clip-rule="evenodd" d="M2.125 3.54167C1.93714 3.54167 1.75697 3.61629 1.62413 3.74913C1.49129 3.88197 1.41667 4.06214 1.41667 4.25V23.375C1.41667 23.5629 1.49129 23.743 1.62413 23.8759C1.75697 24.0087 1.93714 24.0833 2.125 24.0833H21.9583C22.3479 24.0833 22.6667 23.7653 22.6667 23.3736V4.25142C22.6667 3.859 22.3479 3.54167 21.9583 3.54167H19.8333V2.125H21.9583C23.1328 2.125 24.0833 3.07912 24.0833 4.25142V23.3736C24.0833 23.9373 23.8595 24.4779 23.461 24.8767C23.0625 25.2754 22.522 25.4996 21.9583 25.5H2.125C1.56142 25.5 1.02091 25.2761 0.622398 24.8776C0.223883 24.4791 0 23.9386 0 23.375V4.25C0 3.68641 0.223883 3.14591 0.622398 2.7474C1.02091 2.34888 1.56142 2.125 2.125 2.125H5.66667V3.54167H2.125ZM17 3.54167H8.5V2.125H17V3.54167Z" fill="white"/>
<path id="Vector_3" fill-rule="evenodd" clip-rule="evenodd" d="M22.6667 9.91667H1.41675V8.5H22.6667V9.91667Z" fill="white"/>
<path id="Vector_4" d="M5.66675 0.708333C5.66675 0.520472 5.74138 0.340304 5.87421 0.207466C6.00705 0.0746279 6.18722 0 6.37508 0C6.56294 0 6.74311 0.0746279 6.87595 0.207466C7.00879 0.340304 7.08341 0.520472 7.08341 0.708333V5.66667C7.08341 5.85453 7.00879 6.0347 6.87595 6.16753C6.74311 6.30037 6.56294 6.375 6.37508 6.375C6.18722 6.375 6.00705 6.30037 5.87421 6.16753C5.74138 6.0347 5.66675 5.85453 5.66675 5.66667V0.708333ZM17.0001 0.708333C17.0001 0.520472 17.0747 0.340304 17.2075 0.207466C17.3404 0.0746279 17.5206 0 17.7084 0C17.8963 0 18.0764 0.0746279 18.2093 0.207466C18.3421 0.340304 18.4167 0.520472 18.4167 0.708333V5.66667C18.4167 5.85453 18.3421 6.0347 18.2093 6.16753C18.0764 6.30037 17.8963 6.375 17.7084 6.375C17.5206 6.375 17.3404 6.30037 17.2075 6.16753C17.0747 6.0347 17.0001 5.85453 17.0001 5.66667V0.708333Z" fill="white"/>
</g>
</svg>
