<svg width="81" height="80" viewBox="0 0 81 80" fill="none" xmlns="http://www.w3.org/2000/svg">
<g id="Group">
<path id="Vector" d="M21.7525 47.6595C20.1156 47.662 18.499 48.0189 17.0155 48.7054C15.532 49.3919 14.2173 50.3915 13.1631 51.6344C12.109 52.8772 11.3408 54.3334 10.9122 55.9014C10.4836 57.4693 10.405 59.1112 10.6817 60.7124C10.9584 62.3136 11.5839 63.8356 12.5144 65.1722C13.4449 66.5087 14.6581 67.6276 16.0693 68.4508C17.4805 69.2739 19.0557 69.7815 20.6849 69.9381C22.3142 70.0947 23.9582 69.8965 25.5023 69.3574" stroke="#31A05E" stroke-width="4.6875" stroke-linecap="round" stroke-linejoin="round"/>
<path id="Vector_2" d="M11.493 53.633C9.24892 52.5608 7.30921 50.9508 5.8489 48.9484C4.38859 46.946 3.45364 44.6142 3.12843 42.1634C2.80322 39.7127 3.09798 37.2201 3.98612 34.9107C4.87426 32.6014 6.32782 30.5478 8.21561 28.9354M8.3281 28.634C7.09832 26.8075 6.55931 24.6081 6.80649 22.4251C7.05368 20.2421 8.07112 18.2162 9.6787 16.7063C11.2863 15.1963 13.3803 14.2996 15.5901 14.1748C17.7998 14.0501 19.9828 14.7053 21.7525 16.0246M22.645 16.2666C22.0468 15.005 21.7419 13.6262 21.7528 12.232C21.7637 10.8378 22.0902 9.46389 22.7081 8.21177C23.326 6.95965 24.2195 5.86136 25.3226 4.99808C26.4257 4.1348 27.7102 3.52861 29.081 3.22431C30.4519 2.92001 31.8742 2.92539 33.2427 3.24004C34.6112 3.55469 35.891 4.17057 36.9875 5.04216C38.0839 5.91375 38.969 7.01876 39.5772 8.27552C40.1855 9.53227 40.5014 10.9086 40.5017 12.3029M40.5017 12.3029V69.9902M40.5017 12.3029C40.5019 10.9086 40.8178 9.53227 41.4261 8.27552C42.0344 7.01876 42.9194 5.91375 44.0159 5.04216C45.1123 4.17057 46.3921 3.55469 47.7606 3.24004C49.1291 2.92539 50.5514 2.92001 51.9223 3.22431C53.2932 3.52861 54.5776 4.1348 55.6807 4.99808C56.7838 5.86136 57.6773 6.95965 58.2952 8.21177C58.9131 9.46389 59.2396 10.8378 59.2505 12.232C59.2615 13.6262 58.9566 15.005 58.3584 16.2666M40.5017 69.9902C40.5017 71.9643 39.7115 73.8576 38.3051 75.2535C36.8986 76.6495 34.991 77.4337 33.002 77.4337C31.013 77.4337 29.1054 76.6495 27.6989 75.2535C26.2925 73.8576 25.5023 71.9643 25.5023 69.9902M40.5017 69.9902C40.5017 71.9643 41.2918 73.8576 42.6983 75.2535C44.1047 76.6495 46.0123 77.4337 48.0013 77.4337M40.5017 21.6073C40.5017 24.5685 41.6869 27.4084 43.7966 29.5023C45.9063 31.5962 48.7676 32.7726 51.7512 32.7726M72.7877 28.9354C74.4249 30.3313 75.7384 32.0623 76.6381 34.0094C77.5378 35.9566 78.0024 38.0739 78 40.2161C78 42.8325 77.3213 45.2926 76.1251 47.4289M72.6752 28.634C73.905 26.8075 74.444 24.6081 74.1968 22.4251C73.9496 20.2421 72.9322 18.2162 71.3246 16.7063C69.7171 15.1963 67.623 14.2996 65.4133 14.1748C63.2035 14.0501 61.0205 14.7053 59.2508 16.0246M72.3752 71.8511L78 77.4337M55.501 64.4075C55.501 66.8752 56.4887 69.2418 58.2467 70.9867C60.0048 72.7316 62.3893 73.7119 64.8756 73.7119C67.3619 73.7119 69.7463 72.7316 71.5044 70.9867C73.2625 69.2418 74.2502 66.8752 74.2502 64.4075C74.2502 61.9398 73.2625 59.5732 71.5044 57.8283C69.7463 56.0834 67.3619 55.1031 64.8756 55.1031C62.3893 55.1031 60.0048 56.0834 58.2467 57.8283C56.4887 59.5732 55.501 61.9398 55.501 64.4075Z" stroke="#31A05E" stroke-width="4.6875" stroke-linecap="round" stroke-linejoin="round"/>
</g>
</svg>
