<svg width="75" height="75" viewBox="0 0 75 75" fill="none" xmlns="http://www.w3.org/2000/svg">
<g id="Group">
<path id="Vector" fill-rule="evenodd" clip-rule="evenodd" d="M0 0V57.7506H46.6392V53.6256H4.16663V4.12505H60.4162V8.49759H64.5828V0H0ZM64.5828 20.6252C64.5828 21.7193 64.1438 22.7685 63.3624 23.5421C62.581 24.3157 61.5212 24.7503 60.4162 24.7503C59.3111 24.7503 58.2513 24.3157 57.4699 23.5421C56.6885 22.7685 56.2495 21.7193 56.2495 20.6252C56.2495 19.5312 56.6885 18.482 57.4699 17.7084C58.2513 16.9348 59.3111 16.5002 60.4162 16.5002C61.5212 16.5002 62.581 16.9348 63.3624 17.7084C64.1438 18.482 64.5828 19.5312 64.5828 20.6252ZM68.7494 20.6252C68.7494 22.8133 67.8715 24.9117 66.3087 26.4589C64.7459 28.0061 62.6263 28.8753 60.4162 28.8753C58.206 28.8753 56.0865 28.0061 54.5237 26.4589C52.9609 24.9117 52.0829 22.8133 52.0829 20.6252C52.0829 18.4372 52.9609 16.3387 54.5237 14.7915C56.0865 13.2443 58.206 12.3751 60.4162 12.3751C62.6263 12.3751 64.7459 13.2443 66.3087 14.7915C67.8715 16.3387 68.7494 18.4372 68.7494 20.6252Z" fill="#31A05E"/>
<path id="Vector_2" fill-rule="evenodd" clip-rule="evenodd" d="M50.1934 32.6498C51.3552 31.5518 52.8995 30.9387 54.5058 30.9379H63.0099C66.0599 30.9379 68.8995 31.9651 71.0869 34.0111C73.1911 35.9787 74.2869 38.5012 74.7348 40.8917C75.439 44.6496 74.7098 48.7561 72.9161 52.3964V69.0946C72.9161 70.3886 72.4248 71.6352 71.5395 72.5872C70.6543 73.5392 69.4399 74.1268 68.1374 74.2335C66.8348 74.3403 65.5394 73.9582 64.5081 73.1633C63.4768 72.3684 62.7852 71.2187 62.5703 69.9423L61.4578 63.334L60.3454 69.9423C60.1305 71.2187 59.4388 72.3684 58.4076 73.1633C57.3763 73.9582 56.0808 74.3403 54.7783 74.2335C53.4758 74.1268 52.2614 73.5392 51.3761 72.5872C50.4909 71.6352 49.9996 70.3886 49.9996 69.0946V49.6925C49.0495 50.2356 47.9717 50.5215 46.8746 50.5216H36.2456C34.588 50.5216 32.9983 49.8697 31.8262 48.7093C30.6541 47.5489 29.9956 45.9751 29.9956 44.334C29.9956 42.693 30.6541 41.1191 31.8262 39.9587C32.9983 38.7983 34.588 38.1464 36.2456 38.1464H44.3705L50.1934 32.6498ZM54.1662 56.6679V69.0946C54.1669 69.3529 54.2656 69.6016 54.4426 69.7914C54.6196 69.9812 54.8621 70.0983 55.1222 70.1196C55.3822 70.1408 55.6409 70.0647 55.8469 69.9062C56.053 69.7477 56.1915 69.5184 56.235 69.2637L58.4079 56.3606C58.4887 55.879 58.7396 55.4414 59.1157 55.1257C59.4918 54.8099 59.9689 54.6365 60.462 54.6363H62.4537C62.9468 54.6365 63.4239 54.8099 63.8 55.1257C64.1761 55.4414 64.4269 55.879 64.5078 56.3606L66.6807 69.2637C66.7242 69.5184 66.8627 69.7477 67.0688 69.9062C67.2748 70.0647 67.5335 70.1408 67.7935 70.1196C68.0536 70.0983 68.2961 69.9812 68.4731 69.7914C68.6501 69.6016 68.7487 69.3529 68.7495 69.0946V51.9076C68.7494 51.5774 68.8294 51.252 68.9828 50.9588C70.5911 47.8836 71.1765 44.5155 70.639 41.6445C70.3119 39.8996 69.5474 38.2454 68.2265 37.01C66.8786 35.7498 65.0911 35.063 63.0099 35.063H54.5079C53.9725 35.063 53.4558 35.2672 53.0683 35.6322L46.6434 41.7002C46.2562 42.0664 45.7414 42.271 45.2059 42.2715H36.2456C35.693 42.2715 35.1631 42.4888 34.7724 42.8756C34.3817 43.2624 34.1622 43.787 34.1622 44.334C34.1622 44.881 34.3817 45.4056 34.7724 45.7924C35.1631 46.1792 35.693 46.3965 36.2456 46.3965H46.8746C47.4102 46.3961 47.9249 46.1915 48.3121 45.8252L50.6454 43.6224C50.9406 43.3438 51.3119 43.1572 51.7133 43.0855C52.1147 43.0139 52.5284 43.0604 52.9033 43.2194C53.2782 43.3784 53.5977 43.6429 53.8222 43.98C54.0467 44.317 54.1663 44.7119 54.1662 45.1157V56.6679Z" fill="#31A05E"/>
</g>
</svg>
