<svg width="75" height="76" viewBox="0 0 75 76" fill="none" xmlns="http://www.w3.org/2000/svg">
<g id="Group">
<path id="Vector" fill-rule="evenodd" clip-rule="evenodd" d="M74.4964 3.20934L72.4505 2.8785L71.9136 0.842899L75 0L74.4964 3.20934ZM47.094 32.3526L45.33 33.4568L45.3259 33.4526L45.3196 33.442L45.2989 33.4083L45.2284 33.2882C45.1704 33.187 45.0834 33.0395 44.9797 32.852C44.6893 32.336 44.4094 31.814 44.1402 31.2863C43.2883 29.6274 42.5446 27.9133 41.914 26.1552C41.2134 24.1659 40.6123 21.888 40.5191 19.6838C40.4278 17.488 40.83 15.1047 42.4385 13.2356C43.8832 11.5583 46.6069 10.0136 49.4694 8.67764C52.4356 7.28897 55.9262 5.95719 59.2323 4.80452C63.3274 3.38271 67.4638 2.08687 71.6359 0.91876L71.8432 0.859757L71.9157 0.838684L72.4546 2.87639L74.5005 3.20723L74.4881 3.2852L74.4528 3.50857C74.2459 4.80133 74.0289 6.09241 73.802 7.38169C73.2498 10.5523 72.6472 13.7135 71.9945 16.8643C71.2566 20.4066 70.3984 24.1196 69.4885 27.2277C69.0847 28.6494 68.6094 30.049 68.0645 31.4212C67.5919 32.5802 67.0322 33.7054 66.3523 34.4977C64.8972 36.1878 62.6317 36.7167 60.6521 36.8515C58.5876 36.9927 56.2993 36.7378 54.241 36.3669C52.4053 36.0307 50.5873 35.6017 48.7937 35.0815C48.0597 34.8713 47.33 34.6465 46.6048 34.4071L46.4742 34.3608L46.439 34.3481L46.4286 34.346H46.4244L47.094 32.3526ZM47.094 32.3526L45.33 33.4568L45.7197 34.0995L46.4244 34.346L47.094 32.3526ZM48.4869 30.5972C50.609 31.2706 52.7694 31.8125 54.9561 32.2198C56.8713 32.5633 58.7866 32.7572 60.3744 32.6476C62.0513 32.5338 62.8928 32.1166 63.2307 31.7246C63.4463 31.4717 63.7986 30.8733 64.2339 29.807C64.7234 28.5706 65.1503 27.3095 65.5128 26.0287C66.3772 23.0786 67.2084 19.4899 67.938 15.994C68.6382 12.6117 69.2795 9.21712 69.8616 5.81179L69.2211 6.00144C66.9223 6.69051 63.8173 7.66195 60.5775 8.79144C57.3315 9.92303 53.9881 11.2021 51.2002 12.5065C48.3065 13.8594 46.354 15.0879 45.558 16.013C44.9217 16.7505 44.5942 17.8863 44.6626 19.5026C44.7289 21.1104 45.1828 22.9374 45.8171 24.7307C46.5432 26.759 47.4363 28.7215 48.4869 30.5972ZM8.83633 8.51328L8.29948 10.5489L6.25156 10.8797L5.74994 7.67249L8.83633 8.51328ZM28.9052 34.502L30.6691 35.604L30.6733 35.5998L30.6774 35.5914L30.694 35.564L30.7541 35.4629C31.0666 34.9216 31.3652 34.3721 31.6495 33.815C32.1968 32.7445 32.8953 31.2505 33.4798 29.5984C34.0561 27.9632 34.5577 26.0688 34.6344 24.2228C34.7131 22.3832 34.3773 20.3307 32.9803 18.7081C31.7449 17.271 29.4586 15.9898 27.1371 14.9025C24.7098 13.7666 21.8597 12.6793 19.1672 11.7416C15.8323 10.5844 12.4638 9.52957 9.06641 8.5786L8.89645 8.53014L8.83633 8.51328L8.29948 10.5489L6.25156 10.8797L6.26192 10.9429L6.29094 11.1263L6.40287 11.8132C6.96217 15.2218 7.59175 18.618 8.29119 21.9997C8.8923 24.8824 9.59291 27.9105 10.335 30.4497C10.7081 31.7183 11.0978 32.9005 11.5061 33.8972C11.8937 34.8454 12.3684 35.8127 12.9653 36.5038C14.2505 38 16.2259 38.4425 17.8613 38.5521C19.5859 38.6701 21.4783 38.4573 23.1677 38.1559C25.2887 37.7688 27.3805 37.2308 29.4275 36.546L29.5332 36.5102L29.5643 36.4996L29.5747 36.4954L28.9052 34.502ZM28.9052 34.502L30.6691 35.604L30.2794 36.2489L29.5747 36.4954L28.9052 34.502ZM27.5102 32.7445C28.3201 31.2813 29.0112 29.7534 29.5767 28.176C30.0846 26.7368 30.4411 25.2933 30.4929 24.0416C30.5468 22.7815 30.2856 21.9765 29.8607 21.4813C29.2741 20.8027 27.761 19.8334 25.4042 18.7313C23.1573 17.6798 20.4544 16.6451 17.8219 15.7285C15.5287 14.9326 13.2191 14.1865 10.8946 13.4906L10.9029 13.5433C11.2553 15.5662 11.7569 18.2972 12.3477 21.1273C12.9384 23.9636 13.6121 26.8653 14.3085 29.2486C14.6588 30.4413 15.0029 31.4717 15.3346 32.2809C15.6869 33.1386 15.9522 33.5748 16.0849 33.7307C16.2549 33.9267 16.8042 34.2575 18.1391 34.3481C19.3848 34.4324 20.9062 34.2807 22.4484 34.0047C24.1598 33.691 25.8503 33.2716 27.5102 32.7445ZM22.9707 52.8329C22.4443 52.8624 22.1872 52.9383 22.1209 52.9678C21.1819 53.3998 18.3297 54.4112 15.8673 55.2647C14.6029 55.7051 13.3903 56.1181 12.4948 56.4237L12.4368 56.4447V67.8302C12.8016 67.8133 13.1934 67.7986 13.5934 67.7838C15.3097 67.7206 17.3514 67.6574 18.2365 67.6953C21.9509 67.8449 24.7409 68.7384 27.3236 69.5666L27.3796 69.5855C29.8006 70.361 32.0434 71.0732 34.9805 71.2987C35.8097 71.3619 36.616 71.4441 37.3684 71.52H37.3788C40.2682 71.815 42.1711 71.9625 43.6448 71.4188C44.7911 70.9953 48.9885 69.0166 53.2212 66.8524C55.3147 65.7819 57.3668 64.6925 58.998 63.759C59.8168 63.2912 60.5112 62.8739 61.0439 62.5241C61.3092 62.3492 61.5206 62.2017 61.6823 62.0816C61.7458 62.0342 61.8081 61.9851 61.8689 61.9341L61.9269 61.8835C62.1342 61.6707 62.3539 60.9289 61.9974 60.2314C61.8296 59.9053 61.5523 59.6511 61.2159 59.515C60.8014 59.3317 60.0966 59.1905 58.9773 59.378C56.4526 59.7995 53.4367 61.0343 50.4249 62.2797L50.3835 62.2987C48.9035 62.9098 47.4194 63.523 46.1032 63.9697C44.8388 64.3975 43.4355 64.781 42.2125 64.7072C40.5336 64.6019 37.5881 64.1594 35.1588 63.759C33.7627 63.5295 32.3684 63.2893 30.9759 63.0383L30.7064 62.9898L30.6111 62.9709L31.0049 58.7901L40.4776 58.906H40.4983C40.609 58.8938 40.7185 58.8727 40.8258 58.8428C41.1533 58.7585 41.7151 58.5499 42.4219 58.042C42.6395 57.884 42.9256 57.5932 43.193 57.2033C43.2964 57.0506 43.3906 56.8916 43.4749 56.7271C42.3199 56.6524 41.1724 56.4875 40.0423 56.234C39.4269 56.0978 38.8165 55.9397 38.212 55.7599L38.1415 55.7388L26.5401 53.1132L26.4302 53.0942C25.8126 52.99 25.1909 52.9126 24.5668 52.8624C24.036 52.8176 23.5028 52.8078 22.9707 52.8329ZM26.9464 51.0502L27.3215 48.9788L27.3589 48.9851L39.2111 51.6655L39.2982 51.6929L39.3148 51.6992L39.3935 51.7224L39.721 51.8172C40.0091 51.8973 40.4237 52.0069 40.917 52.1164C41.9244 52.3377 43.1847 52.5421 44.3496 52.5421C45.5166 52.5421 46.7851 52.9846 47.4691 54.2448C48.0537 55.3237 47.9086 56.4911 47.7034 57.2623C47.5129 57.9442 47.2289 58.5954 46.8597 59.1968C47.4899 58.9439 48.1594 58.67 48.8621 58.3792L48.9906 58.3244C51.8469 57.1443 55.2711 55.7283 58.3036 55.2204C61.8274 54.6346 64.4702 55.92 65.6787 58.297C66.7441 60.3937 66.5078 63.1584 64.8806 64.84C64.4723 65.2614 63.865 65.6892 63.2846 66.0706C62.5454 66.5463 61.7934 67.0009 61.0294 67.434C59.3193 68.4118 57.203 69.535 55.0805 70.6202C50.8893 72.7633 46.4742 74.86 45.0564 75.3826C42.5981 76.2887 39.7542 76 37.2274 75.7429L36.9642 75.7155C36.1995 75.6358 35.4339 75.5655 34.6675 75.5048C31.2267 75.2393 28.5901 74.3943 26.1815 73.623L26.1297 73.6061C23.5387 72.7759 21.2047 72.0363 18.0706 71.9077C17.3825 71.8803 15.5294 71.9309 13.7426 71.9983C12.7365 72.0354 11.7305 72.0769 10.7247 72.1226L10.4573 72.1353L8.28911 72.2364V53.4061L10.107 52.7929C11.582 52.2945 13.0551 51.7902 14.5262 51.2799C17.1047 50.3843 19.704 49.455 20.4129 49.1305C21.1736 48.7807 22.038 48.6669 22.7303 48.6247C23.4661 48.5826 24.2227 48.6142 24.8839 48.6648C25.6799 48.7281 26.4725 48.8287 27.2594 48.9661L27.3029 48.9745H27.3153L27.3195 48.9766H27.3236L26.9464 51.0502Z" fill="#31A05E"/>
<path id="Vector_2" fill-rule="evenodd" clip-rule="evenodd" d="M60.4221 15.3956C60.629 15.5754 60.799 15.795 60.9224 16.0416C61.0458 16.2883 61.1202 16.5573 61.1414 16.8332C61.1626 17.1091 61.1301 17.3865 61.0458 17.6497C60.9615 17.9128 60.827 18.1565 60.6501 18.3668C54.4711 25.6958 46.7789 36.4364 43.3837 45.1668C43.2835 45.4241 43.1345 45.6589 42.945 45.8577C42.7556 46.0565 42.5295 46.2154 42.2797 46.3254C42.0299 46.4354 41.7612 46.4942 41.489 46.4986C41.2167 46.503 40.9463 46.4529 40.6932 46.351C40.44 46.2492 40.2091 46.0977 40.0136 45.9051C39.818 45.7125 39.6617 45.4827 39.5535 45.2287C39.4453 44.9747 39.3874 44.7016 39.3831 44.4248C39.3788 44.1481 39.4281 43.8732 39.5283 43.6158C43.1826 34.2196 51.2417 23.0491 57.4994 15.6253C57.8573 15.2011 58.3663 14.9389 58.9144 14.8962C59.4625 14.8535 60.0048 15.0339 60.4221 15.3977M19.4429 22.1556C19.2291 22.3272 19.0507 22.5398 18.9178 22.7815C18.7849 23.0231 18.7002 23.289 18.6684 23.5639C18.6367 23.8389 18.6585 24.1175 18.7327 24.3839C18.8069 24.6502 18.932 24.8991 19.1009 25.1163C23.7481 31.1114 28.8223 38.7839 31.2309 45.1478C31.4377 45.6557 31.8315 46.0614 32.3284 46.2783C32.8253 46.4951 33.3858 46.506 33.8905 46.3086C34.3951 46.1112 34.8039 45.7211 35.0297 45.2216C35.2554 44.7221 35.2802 44.1526 35.0987 43.6348C32.4642 36.6725 27.0811 28.5996 22.3551 22.5075C22.0151 22.0687 21.5174 21.785 20.9717 21.719C20.426 21.653 19.8747 21.8101 19.4429 22.1556Z" fill="#31A05E"/>
<path id="Vector_3" d="M0 48.6058H12.4368V76H0V48.6058Z" fill="#31A05E"/>
</g>
</svg>
