<svg width="75" height="75" viewBox="0 0 75 75" fill="none" xmlns="http://www.w3.org/2000/svg">
<path id="Vector" fill-rule="evenodd" clip-rule="evenodd" d="M56.25 26.1146C58.6729 26.8396 60.4167 27.0833 60.4167 27.0833V20.8333H64.5833C67.346 20.8333 69.9955 19.7359 71.949 17.7824C73.9025 15.8289 75 13.1793 75 10.4167C75 7.65399 73.9025 5.00447 71.949 3.05097C69.9955 1.09747 67.346 0 64.5833 0H52.575C49.6819 0 46.9073 1.14927 44.8616 3.19498C42.8159 5.24069 41.6667 8.01526 41.6667 10.9083C41.6667 20.3208 50.725 24.4625 56.25 26.1146ZM70.8333 10.4167C70.8333 12.0743 70.1749 13.664 69.0027 14.8361C67.8306 16.0082 66.2409 16.6667 64.5833 16.6667H56.25V21.7396C55.107 21.3515 53.9913 20.8872 52.9104 20.35C48.7792 18.2792 45.8333 15.3333 45.8333 10.9083C45.8333 9.12033 46.5436 7.40556 47.8079 6.14125C49.0722 4.87695 50.787 4.16667 52.575 4.16667H64.5833C66.2409 4.16667 67.8306 4.82515 69.0027 5.99725C70.1749 7.16935 70.8333 8.75906 70.8333 10.4167ZM18.3687 24.9854C15.6386 24.8909 13.0549 23.7272 11.1748 21.7453C9.29472 19.7633 8.26881 17.1219 8.31828 14.3906C8.36776 11.6592 9.48865 9.05671 11.4393 7.14417C13.3899 5.23163 16.014 4.16227 18.7458 4.16667H25.3479C28.0183 4.16667 30.5793 5.22748 32.4676 7.11574C34.3559 9.00399 35.4167 11.565 35.4167 14.2354C35.4167 22.6562 27.8542 26.5062 22.9167 28.125C20.525 28.9083 18.75 29.1667 18.75 29.1667V25L18.3687 24.9854ZM22.9167 20.9812L18.5208 20.8229C16.8689 20.787 15.2985 20.098 14.1535 18.9068C13.0085 17.7155 12.3822 16.1191 12.4117 14.4671C12.4412 12.8151 13.1241 11.242 14.3109 10.0924C15.4977 8.94278 17.0916 8.31026 18.7437 8.33333H25.3458C26.1211 8.33306 26.8888 8.48552 27.6051 8.78201C28.3214 9.07849 28.9723 9.51319 29.5206 10.0613C30.0689 10.6094 30.5038 11.2601 30.8005 11.9763C31.0973 12.6925 31.25 13.4602 31.25 14.2354C31.25 18.225 28.7146 20.8396 25.1583 22.6937C24.4083 23.0854 23.6479 23.4188 22.9167 23.7021V20.9812ZM45.8333 37.5C45.8333 42.1042 42.1042 45.8333 37.5 45.8333C32.8958 45.8333 29.1667 42.1042 29.1667 37.5C29.1667 32.8958 32.8958 29.1667 37.5 29.1667C42.1042 29.1667 45.8333 32.8958 45.8333 37.5ZM41.6667 37.5C41.6667 38.6051 41.2277 39.6649 40.4463 40.4463C39.6649 41.2277 38.6051 41.6667 37.5 41.6667C36.3949 41.6667 35.3351 41.2277 34.5537 40.4463C33.7723 39.6649 33.3333 38.6051 33.3333 37.5C33.3333 36.3949 33.7723 35.3351 34.5537 34.5537C35.3351 33.7723 36.3949 33.3333 37.5 33.3333C38.6051 33.3333 39.6649 33.7723 40.4463 34.5537C41.2277 35.3351 41.6667 36.3949 41.6667 37.5ZM27.0833 41.6667C27.0833 46.2708 23.3542 50 18.75 50C14.1458 50 10.4167 46.2708 10.4167 41.6667C10.4167 37.0625 14.1458 33.3333 18.75 33.3333C23.3542 33.3333 27.0833 37.0625 27.0833 41.6667ZM22.9167 41.6667C22.9167 42.7717 22.4777 43.8315 21.6963 44.6129C20.9149 45.3943 19.8551 45.8333 18.75 45.8333C17.6449 45.8333 16.5851 45.3943 15.8037 44.6129C15.0223 43.8315 14.5833 42.7717 14.5833 41.6667C14.5833 40.5616 15.0223 39.5018 15.8037 38.7204C16.5851 37.939 17.6449 37.5 18.75 37.5C19.8551 37.5 20.9149 37.939 21.6963 38.7204C22.4777 39.5018 22.9167 40.5616 22.9167 41.6667ZM0 63.6375C0 57.3375 12.4917 54.1667 18.75 54.1667C19.9688 54.1667 21.425 54.2875 22.9792 54.5271C25.7729 52.4792 30.8896 50 37.5 50C44.1083 50 49.2271 52.4792 52.0229 54.5271C53.421 54.3016 54.834 54.1812 56.25 54.1667C62.5083 54.1667 75 57.3396 75 63.6354V75H0V63.6375ZM32.6083 62.5479C33.3333 63.2229 33.3333 63.575 33.3333 63.6354V70.8333H4.16667V63.6354C4.16667 63.5729 4.16667 63.2229 4.89167 62.5479C5.64792 61.8417 6.89583 61.0896 8.59167 60.4021C11.9917 59.0271 16.1458 58.3333 18.75 58.3333C21.3542 58.3333 25.5083 59.0271 28.9083 60.4021C30.6042 61.0896 31.8521 61.8417 32.6083 62.5479ZM46.1292 55.95C43.4058 54.7691 40.4683 54.162 37.5 54.1667C34.05 54.1667 31.1167 54.9708 28.8729 55.95C33.4875 57.5 37.5 60.0667 37.5 63.6375C37.5 60.0667 41.5125 57.5021 46.1292 55.95ZM70.8333 63.6375C70.8333 63.575 70.8333 63.2229 70.1083 62.5479C69.3521 61.8417 68.1042 61.0896 66.4083 60.4021C63.0083 59.0271 58.8542 58.3333 56.25 58.3333C53.6458 58.3333 49.4917 59.0271 46.0917 60.4021C44.3958 61.0896 43.1479 61.8417 42.3917 62.5479C41.6667 63.2229 41.6667 63.575 41.6667 63.6354V70.8333H70.8333V63.6375ZM56.25 50C60.8542 50 64.5833 46.2708 64.5833 41.6667C64.5833 37.0625 60.8542 33.3333 56.25 33.3333C51.6458 33.3333 47.9167 37.0625 47.9167 41.6667C47.9167 46.2708 51.6458 50 56.25 50ZM56.25 45.8333C57.3551 45.8333 58.4149 45.3943 59.1963 44.6129C59.9777 43.8315 60.4167 42.7717 60.4167 41.6667C60.4167 40.5616 59.9777 39.5018 59.1963 38.7204C58.4149 37.939 57.3551 37.5 56.25 37.5C55.1449 37.5 54.0851 37.939 53.3037 38.7204C52.5223 39.5018 52.0833 40.5616 52.0833 41.6667C52.0833 42.7717 52.5223 43.8315 53.3037 44.6129C54.0851 45.3943 55.1449 45.8333 56.25 45.8333Z" fill="#31A05E"/>
</svg>
