<svg width="37" height="37" viewBox="0 0 37 37" fill="none" xmlns="http://www.w3.org/2000/svg">
<g id="alternate_email">
<mask id="mask0_133_151" style="mask-type:alpha" maskUnits="userSpaceOnUse" x="0" y="0" width="37" height="37">
<rect id="Bounding box" width="37" height="37" fill="#D9D9D9"/>
</mask>
<g mask="url(#mask0_133_151)">
<path id="alternate_email_2" d="M18.4998 34.5333C16.2779 34.5333 14.2001 34.1094 12.2662 33.2615C10.3324 32.4136 8.63958 31.2637 7.18785 29.812C5.73611 28.3603 4.58628 26.6675 3.73837 24.7336C2.89045 22.7998 2.46649 20.7219 2.46649 18.5C2.46649 16.2903 2.89045 14.2155 3.73837 12.2755C4.58628 10.3356 5.73611 8.63977 7.18785 7.18803C8.63958 5.73629 10.3324 4.58647 12.2662 3.73855C14.2001 2.89063 16.2779 2.46667 18.4998 2.46667C20.7095 2.46667 22.7844 2.89063 24.7243 3.73855C26.6642 4.58647 28.3601 5.73629 29.8118 7.18803C31.2635 8.63977 32.4134 10.3356 33.2613 12.2755C34.1092 14.2155 34.5332 16.2903 34.5332 18.5V20.8125C34.5332 22.4056 33.9872 23.7031 32.8951 24.7052C31.8031 25.7073 30.512 26.2083 29.0217 26.2083C28.0967 26.2083 27.2167 25.9964 26.3816 25.5724C25.5465 25.1484 24.8721 24.5511 24.3582 23.7802C23.6387 24.6024 22.7523 25.2127 21.6988 25.6109C20.6453 26.0092 19.579 26.2083 18.4998 26.2083C16.3513 26.2083 14.523 25.4608 13.015 23.9656C11.507 22.4704 10.753 20.6486 10.753 18.5C10.753 16.3257 11.507 14.4846 13.015 12.9766C14.523 11.4686 16.3513 10.7146 18.4998 10.7146C20.6484 10.7146 22.4767 11.4686 23.9847 12.9766C25.4927 14.4846 26.2467 16.3257 26.2467 18.5V20.8125C26.2467 21.5063 26.5191 22.1101 27.0638 22.624C27.6085 23.1379 28.2611 23.3948 29.0217 23.3948C29.7309 23.3948 30.3578 23.1379 30.9025 22.624C31.4473 22.1101 31.7196 21.5063 31.7196 20.8125V18.5C31.7196 14.8257 30.4349 11.7038 27.8655 9.13438C25.296 6.56494 22.1741 5.28022 18.4998 5.28022C14.8255 5.28022 11.7036 6.56494 9.1342 9.13438C6.56476 11.7038 5.28003 14.8257 5.28003 18.5C5.28003 22.1743 6.56476 25.2962 9.1342 27.8656C11.7036 30.4351 14.8226 31.7198 18.491 31.7198H26.8248V34.5333H18.4998ZM18.5044 23.3948C19.8888 23.3948 21.0564 22.9244 22.0071 21.9835C22.9578 21.0426 23.4332 19.88 23.4332 18.4955C23.4332 17.111 22.9563 15.937 22.0026 14.9734C21.0489 14.0099 19.8798 13.5281 18.4953 13.5281C17.1108 13.5281 15.9432 14.0114 14.9925 14.978C14.0418 15.9445 13.5665 17.1201 13.5665 18.5046C13.5665 19.889 14.0434 21.0502 14.9971 21.988C15.9508 22.9259 17.1199 23.3948 18.5044 23.3948Z" fill="#1C1B1F"/>
</g>
</g>
</svg>
