<svg width="34" height="34" viewBox="0 0 34 34" fill="none" xmlns="http://www.w3.org/2000/svg">
<g id="call">
<mask id="mask0_133_159" style="mask-type:alpha" maskUnits="userSpaceOnUse" x="0" y="0" width="34" height="34">
<rect id="Bounding box" width="34" height="34" fill="#D9D9D9"/>
</mask>
<g mask="url(#mask0_133_159)">
<path id="call_2" d="M28.7192 30.3167C25.6522 30.3167 22.6253 29.5847 19.6385 28.1208C16.6517 26.6569 13.9777 24.7444 11.6166 22.3833C9.25548 20.0222 7.34298 17.3423 5.87909 14.3437C4.4152 11.3451 3.68326 8.3123 3.68326 5.24527C3.68326 4.76388 3.82914 4.37731 4.1209 4.08555C4.41266 3.79378 4.79803 3.6479 5.27701 3.6479H10.9083C11.2209 3.6479 11.5119 3.76596 11.7812 4.00207C12.0505 4.23818 12.2199 4.53332 12.2895 4.88749L13.3166 9.88124C13.3638 10.2118 13.352 10.5128 13.2812 10.7844C13.2103 11.0559 13.1041 11.2625 12.9624 11.4042L9.27909 15.1583C10.5305 17.2597 11.9767 19.125 13.6176 20.7542C15.2586 22.3833 17.0471 23.741 18.9833 24.8271L22.6312 21.1437C22.8437 20.9076 23.0795 20.7423 23.3387 20.6479C23.5978 20.5535 23.8578 20.5417 24.1187 20.6125L29.0416 21.7104C29.3928 21.7901 29.6931 21.9753 29.9425 22.266C30.1919 22.5567 30.3166 22.8792 30.3166 23.2333V28.7229C30.3166 29.2019 30.1707 29.5872 29.879 29.879C29.5872 30.1708 29.2006 30.3167 28.7192 30.3167ZM8.00409 12.7854L10.7312 10.0229L9.91624 6.23332H6.33951C6.33951 7.15415 6.46937 8.13401 6.72909 9.1729C6.98881 10.2118 7.41381 11.416 8.00409 12.7854ZM21.427 26.1021C22.3715 26.5507 23.3926 26.9108 24.4906 27.1823C25.5885 27.4538 26.6687 27.625 27.7312 27.6958V27.7135V24.0479L24.0833 23.2687L21.427 26.1021Z" fill="#1C1B1F"/>
</g>
</g>
</svg>
