<svg width="24" height="35" viewBox="0 0 24 35" fill="none" xmlns="http://www.w3.org/2000/svg">
<path id="Vector" d="M12 0.24292C5.36571 0.24292 0 5.55475 0 12.1224C0 15.0753 0.857143 17.8416 2.41714 20.3362C4.04571 22.9497 6.18857 25.1899 7.83429 27.8034C8.64 29.0762 9.22286 30.2641 9.84 31.6387C10.2857 32.5721 10.6457 34.1843 12 34.1843C13.3543 34.1843 13.7143 32.5721 14.1429 31.6387C14.7771 30.2641 15.3429 29.0762 16.1486 27.8034C17.7943 25.2068 19.9371 22.9667 21.5657 20.3362C23.1429 17.8416 24 15.0753 24 12.1224C24 5.55475 18.6343 0.24292 12 0.24292ZM12 16.7894C9.63429 16.7894 7.71429 14.8886 7.71429 12.5467C7.71429 10.2047 9.63429 8.30401 12 8.30401C14.3657 8.30401 16.2857 10.2047 16.2857 12.5467C16.2857 14.8886 14.3657 16.7894 12 16.7894Z" fill="black"/>
</svg>
