<svg width="54" height="54" viewBox="0 0 54 54" fill="none" xmlns="http://www.w3.org/2000/svg">
<g id="diversity_3">
<mask id="mask0_132_98" style="mask-type:alpha" maskUnits="userSpaceOnUse" x="0" y="0" width="54" height="54">
<rect id="Bounding box" width="54" height="54" fill="#D9D9D9"/>
</mask>
<g mask="url(#mask0_132_98)">
<path id="diversity_3_2" d="M2.25 43.6408V34.6563C2.25 33.3835 2.69063 32.3166 3.57188 31.4556C4.45312 30.5946 5.5125 30.1641 6.75 30.1641H14.1188C14.8688 30.1641 15.5813 30.3513 16.2562 30.7256C16.9312 31.1 17.475 31.6053 17.8875 32.2417C18.975 33.7017 20.3156 34.8435 21.9094 35.6671C23.5031 36.4907 25.2 36.9025 27 36.9025C28.8375 36.9025 30.5531 36.4907 32.1469 35.6671C33.7406 34.8435 35.0625 33.7017 36.1125 32.2417C36.6 31.6053 37.1719 31.1 37.8281 30.7256C38.4844 30.3513 39.1688 30.1641 39.8813 30.1641H47.25C48.525 30.1641 49.5938 30.5946 50.4563 31.4556C51.3188 32.3166 51.75 33.3835 51.75 34.6563V43.6408H36V38.5309C34.6875 39.4668 33.2719 40.1781 31.7531 40.6647C30.2344 41.1514 28.65 41.3947 27 41.3947C25.3875 41.3947 23.8125 41.142 22.275 40.6366C20.7375 40.1313 19.3125 39.4106 18 38.4747V43.6408H2.25ZM27 34.6563C25.575 34.6563 24.225 34.3288 22.95 33.6737C21.675 33.0185 20.6063 32.1107 19.7437 30.9502C19.1063 30.0143 18.3094 29.275 17.3531 28.7322C16.3969 28.1894 15.3563 27.918 14.2313 27.918C15.0563 26.5328 16.8 25.4379 19.4625 24.633C22.125 23.8281 24.6375 23.4257 27 23.4257C29.3625 23.4257 31.875 23.8281 34.5375 24.633C37.2 25.4379 38.9438 26.5328 39.7688 27.918C38.6813 27.918 37.65 28.1894 36.675 28.7322C35.7 29.275 34.8937 30.0143 34.2563 30.9502C33.4313 32.1482 32.3813 33.0653 31.1062 33.7017C29.8312 34.3381 28.4625 34.6563 27 34.6563ZM9 27.918C7.125 27.918 5.53125 27.2628 4.21875 25.9526C2.90625 24.6424 2.25 23.0514 2.25 21.1796C2.25 19.2704 2.90625 17.67 4.21875 16.3785C5.53125 15.087 7.125 14.4412 9 14.4412C10.9125 14.4412 12.5156 15.087 13.8094 16.3785C15.1031 17.67 15.75 19.2704 15.75 21.1796C15.75 23.0514 15.1031 24.6424 13.8094 25.9526C12.5156 27.2628 10.9125 27.918 9 27.918ZM45 27.918C43.125 27.918 41.5312 27.2628 40.2188 25.9526C38.9062 24.6424 38.25 23.0514 38.25 21.1796C38.25 19.2704 38.9062 17.67 40.2188 16.3785C41.5312 15.087 43.125 14.4412 45 14.4412C46.9125 14.4412 48.5156 15.087 49.8094 16.3785C51.1031 17.67 51.75 19.2704 51.75 21.1796C51.75 23.0514 51.1031 24.6424 49.8094 25.9526C48.5156 27.2628 46.9125 27.918 45 27.918ZM27 21.1796C25.125 21.1796 23.5312 20.5245 22.2188 19.2142C20.9062 17.904 20.25 16.313 20.25 14.4412C20.25 12.532 20.9062 10.9316 22.2188 9.64012C23.5312 8.3486 25.125 7.70284 27 7.70284C28.9125 7.70284 30.5156 8.3486 31.8094 9.64012C33.1031 10.9316 33.75 12.532 33.75 14.4412C33.75 16.313 33.1031 17.904 31.8094 19.2142C30.5156 20.5245 28.9125 21.1796 27 21.1796Z" fill="#31A05E"/>
</g>
</g>
</svg>
